<?xml version="1.0" encoding="UTF-8" standalone="no"?>
<!DOCTYPE svg PUBLIC "-//W3C//DTD SVG 1.1//EN" "http://www.w3.org/Graphics/SVG/1.1/DTD/svg11.dtd">
<svg width="100%" height="100%" viewBox="0 0 1600 420" version="1.1" xmlns="http://www.w3.org/2000/svg" xmlns:xlink="http://www.w3.org/1999/xlink" xml:space="preserve" xmlns:serif="http://www.serif.com/" style="fill-rule:evenodd;clip-rule:evenodd;stroke-linejoin:round;stroke-miterlimit:2;">
    <g transform="matrix(1,0,0,1,-200,-790.073105)">
        <g transform="matrix(0.586403,0,0,0.586403,-951.539444,-161.433439)">
            <g transform="matrix(1049.826858,0,0,1049.826858,1880.798288,2326)">
                <path d="M0.526,-0.004L0.079,-0.2L0.099,-0.348L0.602,-0.543L0.58,-0.384L0.213,-0.243L0.214,-0.294L0.546,-0.148L0.526,-0.004Z" style="fill-rule:nonzero;"/>
            </g>
            <g transform="matrix(1049.826858,0,0,1049.826858,2592.580897,2326)">
                <path d="M-0.026,-0L-0.011,-0.12L0.337,-0.463L0.367,-0.416L0.045,-0.416L0.063,-0.546L0.519,-0.546L0.504,-0.426L0.159,-0.083L0.134,-0.13L0.462,-0.13L0.444,-0L-0.026,-0Z" style="fill-rule:nonzero;"/>
            </g>
            <g transform="matrix(1049.826858,0,0,1049.826858,3047.155926,2326)">
                <path d="M0.304,0.012C0.249,0.012 0.201,0 0.16,-0.024C0.119,-0.047 0.088,-0.079 0.067,-0.12C0.045,-0.161 0.034,-0.206 0.034,-0.255C0.034,-0.297 0.041,-0.336 0.056,-0.372C0.071,-0.409 0.091,-0.441 0.118,-0.469C0.145,-0.497 0.176,-0.519 0.211,-0.534C0.246,-0.55 0.285,-0.558 0.326,-0.558C0.381,-0.558 0.428,-0.547 0.466,-0.525C0.504,-0.504 0.533,-0.474 0.552,-0.437C0.572,-0.4 0.582,-0.357 0.582,-0.31C0.582,-0.297 0.581,-0.285 0.579,-0.272C0.577,-0.259 0.574,-0.246 0.571,-0.231L0.161,-0.231L0.169,-0.341L0.493,-0.341L0.418,-0.291C0.427,-0.319 0.428,-0.344 0.423,-0.366C0.418,-0.388 0.407,-0.405 0.39,-0.418C0.372,-0.431 0.351,-0.438 0.325,-0.438C0.291,-0.438 0.264,-0.429 0.244,-0.412C0.224,-0.395 0.21,-0.372 0.201,-0.343C0.192,-0.314 0.187,-0.283 0.187,-0.248C0.187,-0.221 0.192,-0.197 0.201,-0.177C0.21,-0.158 0.224,-0.143 0.242,-0.133C0.26,-0.123 0.282,-0.118 0.307,-0.118C0.334,-0.118 0.358,-0.124 0.379,-0.135C0.4,-0.146 0.416,-0.161 0.427,-0.18L0.545,-0.119C0.532,-0.092 0.514,-0.069 0.49,-0.05C0.466,-0.03 0.438,-0.015 0.407,-0.004C0.375,0.007 0.341,0.012 0.304,0.012Z" style="fill-rule:nonzero;"/>
            </g>
            <g transform="matrix(1049.826858,0,0,1049.826858,3616.162083,2326)">
                <path d="M0.286,0.006C0.219,0.006 0.169,-0.013 0.136,-0.05C0.103,-0.087 0.091,-0.137 0.1,-0.201L0.13,-0.416L0.038,-0.416L0.056,-0.546L0.058,-0.546C0.086,-0.546 0.109,-0.554 0.128,-0.569C0.146,-0.584 0.157,-0.606 0.161,-0.634L0.166,-0.67L0.318,-0.67L0.3,-0.546L0.426,-0.546L0.408,-0.416L0.282,-0.416L0.252,-0.203C0.249,-0.184 0.25,-0.169 0.254,-0.158C0.258,-0.146 0.266,-0.137 0.278,-0.132C0.289,-0.127 0.305,-0.124 0.325,-0.124C0.331,-0.124 0.337,-0.124 0.343,-0.124C0.348,-0.125 0.355,-0.126 0.364,-0.127L0.353,-0C0.343,0.003 0.332,0.004 0.32,0.005C0.307,0.006 0.296,0.006 0.286,0.006Z" style="fill-rule:nonzero;"/>
            </g>
            <g transform="matrix(1049.826858,0,0,1049.826858,4062.338498,2326)">
                <path d="M0.077,-0.004L0.099,-0.163L0.466,-0.304L0.465,-0.253L0.133,-0.399L0.153,-0.543L0.6,-0.347L0.58,-0.199L0.077,-0.004Z" style="fill-rule:nonzero;"/>
            </g>
            <g transform="matrix(1049.826858,0,0,1049.826858,4774.121107,2326)">
            </g>
        </g>
    </g>
</svg>
